<svg height="85.333328" viewBox="0 0 85.333328 85.333328" width="85.333328" xmlns="http://www.w3.org/2000/svg"><g transform="matrix(.13333333 0 0 -.13333333 0 85.333331)"><path d="m640 320c0-176.73-143.27-320-320-320s-320 143.27-320 320 143.27 320 320 320 320-143.27 320-320" fill="#c84755"/><path d="m195 120c-36.711 0-67.434 25.648-75.23 60h7.601c13.121-23.844 38.488-40 67.629-40s54.508 16.156 67.629 40h7.601c-7.796-34.352-38.519-60-75.23-60" fill="#a43f4a"/><path d="m473.57 120c-39.621 0-72.265 29.871-76.644 68.324l4.047 2.676c10.707-29.734 39.172-51 72.597-51 36.723 0 67.453 25.664 75.239 60.031.39-.023.785-.035 1.175-.035.227 0 .454.004.676.012.035-.953.055-1.906.055-2.867 0-42.602-34.539-77.141-77.145-77.141m35.778 87.145c-4.379 15.636-18.758 27.14-35.778 27.14-3.047 0-6.011-.367-8.847-1.062l25.699 17.015c12.031-6.152 20.293-18.675 20.293-33.097 0-3.461-.477-6.817-1.367-9.996m-71.551 0c-.668 2.378-1.102 4.851-1.277 7.398l7.332 4.855c-2.723-3.628-4.801-7.773-6.055-12.253" fill="#a43f4a"/><path d="m195 294.285c-42.605 0-77.145-34.539-77.145-77.144 0-42.602 34.54-77.141 77.145-77.141s77.145 34.539 77.145 77.141c0 42.605-34.54 77.144-77.145 77.144m0-40c20.48 0 37.145-16.664 37.145-37.144 0-20.477-16.665-37.141-37.145-37.141s-37.145 16.664-37.145 37.141c0 20.48 16.665 37.144 37.145 37.144" fill="#495672"/><path d="m473.57 294.285c-42.601 0-77.14-34.539-77.14-77.144 0-42.602 34.539-77.141 77.14-77.141 42.606 0 77.145 34.539 77.145 77.141 0 42.605-34.539 77.144-77.145 77.144m0-40c20.481 0 37.145-16.664 37.145-37.144 0-20.477-16.664-37.141-37.145-37.141-20.48 0-37.14 16.664-37.14 37.141 0 20.48 16.66 37.144 37.14 37.144" fill="#495672"/><path d="m550.66 200.008c-.086 2.406-.285 4.789-.59 7.133.426 3.273.645 6.613.645 10 0 29.386-16.434 54.937-40.613 67.964-.282.524-.59 1.04-.926 1.543-3.848 5.817-10.207 8.965-16.692 8.965-1.937 0-3.886-.281-5.777-.855.367 2.637.672 5.515.867 8.609 24.391-6.754 67.953-25.937 81.762-78.265 2.82-10.676-3.555-21.622-14.234-24.438-1.481-.394-2.969-.605-4.442-.656" fill="#a43f4a"/><path d="m549.984 199.996c-.39 0-.785.012-1.175.035.531 2.332.953 4.703 1.261 7.11.305-2.344.504-4.727.59-7.133-.222-.008-.449-.012-.676-.012" fill="#883840"/><path d="m548.809 200.031c-8.391.496-15.887 6.293-18.145 14.867-5.453 20.653-18.777 33.254-31.883 40.879l4.766 3.153c8.699 5.765 11.43 17.168 6.555 26.175 24.179-13.027 40.613-38.578 40.613-67.964 0-3.387-.219-6.727-.645-10-.308-2.407-.73-4.778-1.261-7.11" fill="#404a5f"/><path d="m372.313 220h-13.711c-2.047 20.891-9.079 53.012-31.899 77.359-2.933 3.129-6.027 6.039-9.281 8.723 9.199 1.797 16.148 9.902 16.148 19.633 0 2.848-.597 5.562-1.672 8.015.891-2.031 1.454-4.246 1.622-6.585.226-3.047 6.16-74.645 58.144-74.645 4.934 0 9.695.574 14.219 1.68-2.809-5.125-5.055-10.606-6.649-16.352zm71.832 68.473c.554 1.519 1.054 3.074 1.496 4.668 11.461 41.449-15.899 109.398-126.223 176.859h-25.488c-11.043 0-20 8.953-20 20s8.957 20 20 20h31.07c3.617 0 7.168-.98 10.273-2.844 138.02-82.617 154.868-162.703 152.301-203.789-9.402 2.606-15.957 3.36-16.855 3.453-.758.086-1.512.129-2.254.129-9.692 0-17.973-7.078-19.574-16.695-1.61-.543-3.188-1.137-4.746-1.781" fill="#a43f4a"/><path d="m399.234 237.828c1.594 5.746 3.84 11.227 6.649 16.352 17.746 4.324 31.824 16.754 38.262 34.293 1.558.644 3.136 1.238 4.746 1.781-.067-.402-.121-.809-.164-1.215-.61-5.758 1.289-11.203 4.812-15.246z" fill="#404a5f"/><path d="m448.891 290.254c1.601 9.617 9.882 16.695 19.574 16.695.742 0 1.496-.043 2.254-.129.898-.093 7.453-.847 16.855-3.453-.195-3.094-.5-5.972-.867-8.609-.988-.301-1.965-.68-2.918-1.145-3.344.446-6.754.672-10.219.672-8.629 0-16.929-1.418-24.679-4.031" fill="#883840"/><path d="m453.539 273.793c-3.523 4.043-5.422 9.488-4.812 15.246.043.406.097.813.164 1.215 7.75 2.613 16.05 4.031 24.679 4.031 3.465 0 6.875-.226 10.219-.672-.797-.386-1.574-.828-2.336-1.332z" fill="#394051"/><path d="m378.336 180h-39.051c10.543 0 19.274 8.184 19.957 18.707.059.856.5 8.531-.5 19.793 9.645-3.816 20.571-6 32.922-6 1.641 0 3.274.039 4.895.117.105-1.844.277-3.668.511-5.476-.422-3.27-.64-6.61-.64-10 0-2.981.168-5.922.496-8.817l-7.547-5c-3.274-2.168-7.117-3.324-11.043-3.324m-283.336 0c-.0117 0-.0234 0-.0391 0zm-.0508 0c-.0078 0-.0156 0-.0234 0zm-.0429 0c-.004 0-.0118 0-.0196 0zm-.0391 0c-.0039 0-.0117 0-.0156 0zm-.0352 0c-.0078 0-.0117 0-.0195 0zm-.039 0c-.0078 0-.0117 0-.0196 0zm-.0391.004c-.0039 0-.0117 0-.0156 0zm-.0391 0c-.0039 0-.0078 0-.0117 0zm-.039 0h-.0039zm-.0352 0c-.0039 0-.0039 0-.0039 0zm-19.1679 24.324c.0507.219.1015.438.1562.652 7.4688 29.04 32.9691 76.961 82.6051 100.735h.868c-55.567-34.649-81.0981-94.5-82.5668-98.039-.4571-1.094-.8086-2.211-1.0625-3.348m368.3793 15.07c5.082 6.766 12.41 11.747 20.871 13.825z" fill="#a43f4a"/><path d="m396.926 188.324c-.328 2.895-.496 5.836-.496 8.817 0 3.39.218 6.73.64 10 .723-5.59 2.047-10.989 3.903-16.141zm39.594 26.219c-.059.859-.09 1.727-.09 2.598 0 2.179.187 4.312.547 6.386 13.742 7.215 25.503 17.703 34.253 30.688.778.047 1.555.07 2.34.07 6.063 0 11.789-1.461 16.852-4.047l-25.699-17.015c-8.461-2.078-15.789-7.059-20.871-13.825z" fill="#883840"/><path d="m400.973 191c-1.856 5.152-3.18 10.551-3.903 16.141-.234 1.808-.406 3.632-.511 5.476 14.539.703 28.254 4.52 40.418 10.91-.36-2.074-.547-4.207-.547-6.386 0-.871.031-1.739.09-2.598zm89.449 59.238c-5.063 2.586-10.789 4.047-16.852 4.047-.785 0-1.562-.023-2.34-.07 2.258 3.344 4.313 6.855 6.153 10.519 5.926-1.66 13.621-4.429 21.398-8.957z" fill="#404a5f"/><path d="m510.102 285.105c-7.254 3.911-15.207 6.688-23.625 8.106.078.508.156 1.023.23 1.547 1.891.574 3.84.855 5.777.855 6.485 0 12.844-3.148 16.692-8.965.336-.503.644-1.019.926-1.543" fill="#883840"/><path d="m498.781 255.777c-7.777 4.528-15.472 7.297-21.398 8.957 2.797 5.579 5.09 11.512 6.812 17.746.785 2.844 1.618 6.446 2.282 10.731 8.418-1.418 16.371-4.195 23.625-8.106 4.875-9.007 2.144-20.41-6.555-26.175z" fill="#394051"/><path d="m486.477 293.211c-.891.148-1.786.285-2.688.402.953.465 1.93.844 2.918 1.145-.074-.524-.152-1.039-.23-1.547" fill="#723238"/><path d="m477.383 264.734c-6.395 1.793-10.727 2.293-10.875 2.313-5.227.551-9.77 3.07-12.969 6.746l27.914 18.488c.762.504 1.539.946 2.336 1.332.902-.117 1.797-.254 2.688-.402-.664-4.285-1.497-7.887-2.282-10.731-1.722-6.234-4.015-12.167-6.812-17.746" fill="#343945"/><path d="m391.664 212.5c-12.351 0-23.277 2.184-32.922 6-.047.492-.094.992-.14 1.5h13.711l26.921 17.828c-1.828-6.582-2.804-13.523-2.804-20.687 0-1.516.043-3.028.129-4.524-1.621-.078-3.254-.117-4.895-.117" fill="#883840"/><path d="m436.977 223.527c2.906 16.7 17.003 29.61 34.253 30.688-8.75-12.985-20.511-23.473-34.253-30.688" fill="#723238"/><path d="m396.559 212.617c-.086 1.496-.129 3.008-.129 4.524 0 7.164.976 14.105 2.804 20.687l54.305 35.965c3.199-3.676 7.742-6.195 12.969-6.746.148-.02 4.48-.52 10.875-2.313-1.84-3.664-3.895-7.175-6.153-10.519-17.25-1.078-31.347-13.988-34.253-30.688-12.164-6.39-25.879-10.207-40.418-10.91" fill="#394051"/><path d="m313.074 220h-40.984c-.871 23.953-12.668 45.125-30.555 58.676 43.219-6.656 62.887-36.981 71.539-58.676m-88.816 0h-58.516c6.805 8.691 17.391 14.285 29.258 14.285s22.453-5.594 29.258-14.285" fill="#883840"/><path d="m232.035 220h-7.777c-6.805 8.691-17.391 14.285-29.258 14.285s-22.453-5.594-29.258-14.285h-7.777c1.465 19.152 17.515 34.285 37.035 34.285s35.57-15.133 37.035-34.285" fill="#723238"/><path d="m272.09 220h-40.055c-1.465 19.152-17.515 34.285-37.035 34.285s-35.57-15.133-37.035-34.285h-28.985c11.196 16.762 28.555 37.645 52.434 52.219 11.988 4.816 25.949 7.781 42.156 7.781 6.399 0 12.379-.465 17.965-1.324 17.887-13.551 29.684-34.723 30.555-58.676" fill="#394051"/><path d="m318.363 220h-46.273 40.984c-8.652 21.695-28.32 52.02-71.539 58.676-5.211 3.945-10.933 7.242-17.055 9.777 6.098 1.004 12.461 1.547 19.09 1.547 23.61 0 41.203-6.488 53.809-19.84 13.953-14.789 19.121-35.347 20.984-50.16" fill="#883840"/><path d="m181.414 272.219c12.539 7.652 26.879 13.57 43.066 16.234 6.122-2.535 11.844-5.832 17.055-9.777-5.586.859-11.566 1.324-17.965 1.324-16.207 0-30.168-2.965-42.156-7.781" fill="#394051"/><path d="m94.9609 180c-.0039 0-.0078 0-.0117 0zm-.0351 0c-.0078 0-.0117 0-.0195 0zm-.0391 0c-.0039 0-.0117 0-.0195 0zm-.0351 0c-.0078 0-.0157 0-.0196 0zm-.0391 0c-.0078 0-.0117 0-.0195 0zm-.0391 0c-.0039 0-.0117 0-.0195.004.0078-.004.0156-.004.0195-.004m-.0351.004c-.0078 0-.0156 0-.0235 0zm-.0352 0c-.0078 0-.0156 0-.0273 0zm-.0312 0c-.0117 0-.0235 0-.0313 0zm-.0352 0c-6.5469.117-12.6289 3.437-16.2734 8.891-3.0547 4.578-4.0586 10.164-2.8906 15.433-1.2813-5.793.0703-11.875 3.7226-16.586 3.7149-4.785 9.3945-7.629 15.4414-7.738m202.7693 120.18c-3.129 1.957-6.394 3.808-9.804 5.531h8.586c.367-1.817.773-3.664 1.218-5.531" fill="#a43f4a"/><path d="m358.602 220h-3.098c-7.434 26.5-25.109 59.516-58.098 80.184-.445 1.867-.851 3.714-1.218 5.531h17.382c1.317 0 2.606.125 3.852.367 3.254-2.684 6.348-5.594 9.281-8.723 22.82-24.347 29.852-56.468 31.899-77.359" fill="#883840"/><path d="m128.98 220h-4.015c9.765 17.77 27.269 40.488 56.449 52.219-23.879-14.574-41.238-35.457-52.434-52.219" fill="#394051"/><path d="m339.285 180h-69.055c1.25 5.516 1.915 11.25 1.915 17.141 0 3.39-.219 6.726-.645 10 .426 3.273.645 6.613.645 10 0 .957-.02 1.91-.055 2.859h46.273c-1.863 14.813-7.031 35.371-20.984 50.16-12.606 13.352-30.199 19.84-53.809 19.84-6.629 0-12.992-.543-19.09-1.547-9.085 3.758-19.039 5.832-29.48 5.832-42.605 0-77.145-34.539-77.145-77.144 0-3.387.219-6.727.645-10-.426-3.274-.645-6.61-.645-10 0-5.891.661-11.625 1.915-17.141h-24.77c-.0117 0-.0234 0-.0391 0-.0039 0-.0078 0-.0117 0-.0078 0-.0156 0-.0234 0s-.0117 0-.0195 0c-.004 0-.0118 0-.0196 0-.0039 0-.0117 0-.0195 0-.0039 0-.0117 0-.0156 0-.0078 0-.0157 0-.0196 0-.0078 0-.0156 0-.0195 0-.0078 0-.0117 0-.0195 0s-.0117 0-.0196 0c-.0039 0-.0117 0-.0195.004-.0039 0-.0117 0-.0156 0-.0078 0-.0156 0-.0235 0-.0039 0-.0078 0-.0117 0-.0078 0-.0195 0-.0273 0h-.0039c-.0117 0-.0235 0-.0313 0-.0039 0-.0039 0-.0039 0-6.0469.109-11.7265 2.953-15.4414 7.738-3.6523 4.711-5.0039 10.793-3.7226 16.586.2539 1.137.6054 2.254 1.0625 3.348 1.4687 3.539 26.9998 63.39 82.5668 98.039h128.5c3.41-1.723 6.675-3.574 9.804-5.531 7.313-30.7 25.43-67.485 61.336-81.684 1-11.262.559-18.937.5-19.793-.683-10.523-9.414-18.707-19.957-18.707m-144.285 0c-17.016 0-31.398 11.504-35.777 27.145 1.328 4.73 3.566 9.085 6.519 12.855h58.516c2.953-3.77 5.191-8.125 6.515-12.855-4.375-15.641-18.757-27.145-35.773-27.145" fill="#883840"/><path d="m270.23 180h-7.601c4.539 8.246 7.613 17.41 8.871 27.141.426-3.274.645-6.61.645-10 0-5.891-.665-11.625-1.915-17.141m-142.859 0h-7.601c-1.254 5.516-1.915 11.25-1.915 17.141 0 3.39.219 6.726.645 10 1.258-9.731 4.332-18.895 8.871-27.141m103.402 27.145c-1.324 4.73-3.562 9.085-6.515 12.855h7.777c.07-.941.11-1.895.11-2.859 0-3.461-.477-6.817-1.372-9.996m-71.55 0c-.891 3.179-1.368 6.535-1.368 9.996 0 .964.04 1.918.11 2.859h7.777c-2.953-3.77-5.191-8.125-6.519-12.855" fill="#723238"/><path d="m262.629 180h-135.258c-4.539 8.246-7.613 17.41-8.871 27.141-.426 3.273-.645 6.613-.645 10 0 42.605 34.54 77.144 77.145 77.144 10.441 0 20.395-2.074 29.48-5.832-16.187-2.664-30.527-8.582-43.066-16.234-29.18-11.731-46.684-34.449-56.449-52.219h4.015 28.985c-.07-.941-.11-1.895-.11-2.859 0-3.461.477-6.817 1.368-9.996 4.379-15.641 18.761-27.145 35.777-27.145s31.398 11.504 35.773 27.145c.895 3.179 1.372 6.535 1.372 9.996 0 .964-.04 1.918-.11 2.859h40.055c.035-.949.055-1.902.055-2.859 0-3.387-.219-6.727-.645-10-1.258-9.731-4.332-18.895-8.871-27.141" fill="#394051"/><path d="m358.742 218.5c-35.906 14.199-54.023 50.984-61.336 81.684 32.989-20.668 50.664-53.684 58.098-80.184h3.098c.046-.508.093-1.008.14-1.5" fill="#723238"/><path d="m158.234 305.715h-24.664c-11.047 0-20 8.953-20 20 0 11.043 8.953 20 20 20h180c8.192 0 15.235-4.93 18.328-11.985-3.128 7.125-10.269 11.977-18.382 11.977-.438 0-.879-.016-1.325-.043-11.019-.758-19.336-10.309-18.574-21.328.09-1.27.199-2.578.332-3.918-14.695 6.375-31.527 9.582-50.379 9.582-32.242 0-59.371-9.238-81.773-22.641-1.203-.535-2.391-1.082-3.563-1.644" fill="#a43f4a"/><g fill="#883840"><path d="m317.422 306.082c-7.082 5.844-14.914 10.629-23.473 14.336-.133 1.34-.242 2.648-.332 3.918-.762 11.019 7.555 20.57 18.574 21.328.446.027.887.043 1.325.043 8.113 0 15.254-4.852 18.382-11.977 1.075-2.453 1.672-5.167 1.672-8.015 0-9.731-6.949-17.836-16.148-19.633"/><path d="m159.102 305.715h-.868c1.172.562 2.36 1.109 3.563 1.644-.902-.539-1.809-1.093-2.695-1.644"/><path d="m296.188 305.715h-8.586c-17.434 8.805-38.582 14.285-64.032 14.285-23.675 0-44.183-4.809-61.773-12.641 22.402 13.403 49.531 22.641 81.773 22.641 18.852 0 35.684-3.207 50.379-9.582.457-4.566 1.192-9.516 2.239-14.703"/></g><path d="m313.57 305.715h-17.382c-1.047 5.187-1.782 10.137-2.239 14.703 8.559-3.707 16.391-8.492 23.473-14.336-1.246-.242-2.535-.367-3.852-.367" fill="#723238"/><path d="m287.602 305.715h-128.5c.886.551 1.793 1.105 2.695 1.644 17.59 7.832 38.098 12.641 61.773 12.641 25.45 0 46.598-5.48 64.032-14.285" fill="#723238"/><path d="m468.613 306.934s65.555-6.934 81.387-66.934" fill="#e08e4c"/><path d="m466.512 287.047.687 6.519-.781-6.511.094-.008.687 6.519-.781-6.511c.445-.008 14.832-1.973 29.375-9.68 7.297-3.832 14.598-8.996 20.695-15.809 6.102-6.847 11.137-15.257 14.172-26.668 2.82-10.679 13.762-17.054 24.442-14.234 10.679 2.816 17.054 13.758 14.238 24.438-4.781 18.222-13.652 33.003-24.027 44.222-15.614 16.883-34.063 25.977-48.438 31.102-14.43 5.101-25.062 6.269-26.156 6.398-10.989 1.16-20.832-6.801-21.996-17.785-1.16-10.984 6.8-20.832 17.789-21.996" fill="#f3cc70"/><path d="m339.285 220s-12.855 100-115.715 100c-102.855 0-128.57-100-128.57-100h283.332l114.168 75.605" fill="#e08e4c"/><path d="m359.121 222.551c-.293 1.656-3.699 29.125-22.297 58.265-9.324 14.516-22.703 29.473-41.511 40.723-18.77 11.277-42.801 18.508-71.743 18.461-28.957.035-53.507-7.164-73.195-18.141-29.621-16.5-48.074-40.695-59.2227-60.371-11.1523-19.754-15.207-35.34-15.5234-36.508-1.5469-6.015-.2422-12.324 3.5664-17.234 3.8047-4.91 9.5938-7.746 15.8047-7.746h283.332c3.902 0 7.793 1.172 11.043 3.324l114.168 75.606c9.211 6.101 11.73 18.511 5.633 27.718-6.102 9.211-18.508 11.731-27.719 5.633l-109.148-72.281h-277.309v-20l19.371-4.98-.766.199.762-.211.004.012-.766.199.762-.211c.317 1.363 6.942 24.004 23.774 44.797 8.402 10.437 19.199 20.425 32.988 27.812 13.82 7.371 30.672 12.352 52.441 12.383 22.489-.043 38.633-5.316 51.207-12.785 9.411-5.637 16.864-12.672 22.879-20.285 9.016-11.383 14.657-24.125 17.867-33.91 1.614-4.887 2.629-9.016 3.223-11.805.297-1.395.488-2.453.598-3.106l.105-.66.129.02-.129-.02.129.02-.129-.02c1.406-10.953 11.43-18.691 22.387-17.285 10.953 1.406 18.695 11.43 17.285 22.387" fill="#f3cc70"/><path d="m95 220s45.715 110 148.57 110c102.86 0 95.715-110 95.715-110z" fill="#e08e4c"/><path d="m95 220 18.469-7.676-5.684 2.364 5.668-2.399.016.035-5.684 2.364 5.668-2.399c.141.434 11.277 26.203 33.289 50.637 10.985 12.242 24.594 24.117 40.621 32.777 16.075 8.668 34.434 14.274 56.207 14.297 19.489-.043 32.657-4.434 42.461-10.527 7.352-4.61 12.969-10.375 17.516-16.996 6.801-9.887 10.949-21.832 13.195-32.692 2.266-10.836 2.656-20.461 2.649-25.277 0-1.188-.024-2.086-.039-2.641l-.024-.566v-.008l19.957-1.293v20h-244.285v-20l18.469-7.676-18.469 7.676v-20h244.285c10.559 0 19.278 8.172 19.957 18.711.028.375.149 2.434.149 5.797-.004 6.062-.387 16.344-2.578 28.707-3.329 18.461-10.559 42.047-28.278 62.137-8.836 9.984-20.375 18.878-34.633 25.035-14.25 6.187-31.066 9.625-50.332 9.613-29.308.027-54.992-7.941-76.246-19.664-31.945-17.629-54.23-43.164-68.8513-64.106-14.5977-20.992-21.5469-37.632-21.9414-38.554-2.5665-6.176-1.879-13.215 1.832-18.778 3.7109-5.562 9.9492-8.898 16.6367-8.898z" fill="#f3cc70"/><path d="m133.57 325.715h180v20l-19.953-1.375c.168-1.309 1.711-26.336 13.91-53.488 6.164-13.547 15.161-27.868 29.039-39.266 13.778-11.426 32.821-19.199 55.102-19.086 26.172-.035 50.605 10.027 68.203 27.742 17.66 17.656 28.227 42.887 28.164 71.235-.004 29.843-11.347 62.793-35.91 96.015-24.602 33.27-62.434 67.078-116.852 99.668-3.089 1.852-6.671 2.84-10.273 2.84h-31.07c-11.047 0-20-8.953-20-20s8.953-20 20-20h31.07v20l-10.273-17.16c50.972-30.496 84.66-61.246 105.226-89.117 20.613-27.914 28.094-52.684 28.086-72.246-.062-18.672-6.551-32.926-16.512-43.008-10.019-10.02-23.773-15.934-39.859-15.969-13.555.113-22.191 3.992-29.773 10.043-5.614 4.582-10.415 10.727-14.329 17.687-5.89 10.403-9.605 22.497-11.625 31.797-1.019 4.649-1.64 8.598-1.996 11.289-.179 1.348-.289 2.379-.351 3.032l-.067.683-.007.11-7.547-.571 7.55.52-.003.051-7.547-.571 7.55.52c-.722 10.476-9.453 18.625-19.953 18.625h-180c-11.043 0-20-8.953-20-20s8.957-20 20-20" fill="#f3cc70"/></g></svg>